<?xml version="1.0" standalone="no"?>
<!DOCTYPE svg PUBLIC "-//W3C//DTD SVG 20010904//EN"
 "http://www.w3.org/TR/2001/REC-SVG-20010904/DTD/svg10.dtd">
<svg version="1.0" xmlns="http://www.w3.org/2000/svg"
 width="250.000000pt" height="250.000000pt" viewBox="0 0 250.000000 250.000000"
 preserveAspectRatio="xMidYMid meet">
<metadata>
Created by potrace 1.14, written by Peter Selinger 2001-2017
</metadata>
<g transform="translate(0.000000,250.000000) scale(0.100000,-0.100000)"
fill="#000000" stroke="none">
<path d="M748 2063 c-10 -3 -18 -9 -18 -14 0 -5 -3 -8 -7 -7 -18 3 -45 -16
-58 -43 -18 -33 -20 -119 -4 -119 6 0 9 -6 6 -14 -3 -8 1 -17 9 -20 8 -3 14
-12 14 -19 0 -7 11 -20 25 -27 13 -7 22 -17 20 -21 -3 -4 4 -10 15 -14 11 -3
20 -11 20 -16 0 -6 7 -17 15 -25 8 -9 18 -26 21 -40 8 -31 -4 -94 -17 -94 -6
0 -7 -4 -4 -10 3 -5 1 -10 -5 -10 -6 0 -8 -4 -5 -10 3 -5 1 -10 -4 -10 -6 0
-11 -5 -11 -11 0 -7 -8 -18 -17 -26 -12 -10 -13 -12 -3 -8 10 4 9 2 -2 -8 -10
-8 -18 -20 -18 -26 0 -7 -5 -9 -12 -5 -8 5 -9 2 -5 -10 4 -9 3 -15 -2 -12 -9
6 -26 -22 -23 -36 1 -5 -5 -8 -13 -8 -8 0 -15 -5 -15 -10 0 -6 -15 -25 -32
-43 -35 -34 -38 -40 -38 -59 0 -6 -3 -8 -6 -5 -11 10 -46 -42 -38 -55 4 -7 4
-10 -1 -6 -11 11 -38 -29 -29 -44 4 -6 3 -8 -3 -5 -10 7 -28 -20 -25 -35 1 -5
-3 -8 -8 -8 -5 0 -9 -3 -8 -7 1 -5 -5 -21 -12 -38 -7 -16 -14 -39 -16 -50 -7
-41 -15 -80 -19 -92 -2 -7 -1 -13 3 -13 4 0 7 -18 6 -40 0 -22 5 -45 13 -51 7
-6 13 -19 14 -28 0 -10 2 -11 6 -4 3 10 8 9 19 -2 11 -11 12 -19 4 -35 -8 -16
-6 -24 10 -40 11 -11 27 -20 36 -20 8 0 12 -4 9 -10 -3 -5 -1 -10 5 -10 6 0 9
-4 6 -8 -8 -13 25 -71 45 -77 10 -4 19 -11 19 -16 0 -6 5 -7 10 -4 6 3 10 2
10 -4 0 -5 27 -22 60 -38 33 -15 60 -32 60 -36 0 -5 4 -6 9 -3 5 3 23 -1 40
-10 17 -8 35 -13 40 -10 5 4 11 1 13 -5 2 -6 19 -13 38 -15 36 -4 75 -11 75
-14 0 -1 23 -3 51 -4 28 -2 56 -6 62 -10 6 -3 13 -3 16 2 3 5 21 8 40 7 20 -1
36 2 36 6 0 5 3 8 8 8 7 -1 11 0 30 6 4 2 17 6 29 10 13 4 21 11 18 15 -7 11
48 20 60 10 6 -5 24 -12 40 -15 17 -3 40 -8 53 -11 12 -2 22 0 22 6 0 5 9 10
20 10 11 0 23 7 26 15 4 8 11 12 17 8 6 -4 8 0 4 10 -4 11 -1 17 8 17 8 0 12
6 9 13 -2 7 4 23 15 36 15 17 28 21 60 20 23 -2 41 -5 41 -9 0 -10 79 -30 120
-30 22 0 40 5 40 11 0 5 5 7 10 4 6 -3 10 -1 10 5 0 6 4 9 9 5 5 -3 12 4 16
15 3 11 10 20 15 20 5 0 7 6 4 14 -3 8 -1 17 4 20 9 5 4 26 -24 109 -4 9 -11
17 -16 17 -5 0 -7 4 -4 9 3 5 -3 20 -14 33 -11 14 -16 28 -13 32 3 3 2 6 -4 6
-15 0 -53 104 -56 153 -1 9 -5 17 -10 17 -4 0 -6 4 -3 9 4 5 0 12 -6 14 -10 4
-9 6 1 6 11 1 11 4 1 16 -7 8 -9 15 -4 15 5 0 4 4 -1 8 -6 4 -18 30 -28 57
-32 92 -33 88 49 119 41 16 74 33 74 38 0 5 5 6 10 3 6 -3 10 -2 10 4 0 6 12
17 28 25 15 8 23 15 17 16 -5 0 1 7 13 16 12 8 22 23 22 33 0 10 3 21 7 25 4
3 8 14 9 24 2 9 7 18 13 20 5 2 7 10 4 18 -3 8 -2 22 2 31 5 10 9 34 9 53 1
19 5 41 9 48 5 6 5 12 0 12 -4 0 -8 28 -8 63 0 47 -6 73 -24 107 -13 25 -28
47 -33 48 -4 2 -6 8 -2 13 3 5 -1 9 -9 9 -8 0 -18 7 -21 16 -3 9 -12 14 -18
12 -7 -3 -21 5 -31 16 -10 12 -16 16 -12 9 4 -9 -3 -8 -21 2 -15 8 -31 12 -36
9 -4 -3 -8 -1 -8 3 0 5 -12 10 -27 11 -16 1 -39 5 -53 8 -52 11 -108 17 -182
18 -44 0 -74 4 -71 10 4 5 0 6 -7 1 -8 -5 -62 -10 -121 -11 -59 -1 -122 -7
-142 -12 -24 -7 -39 -6 -46 1 -8 8 -11 8 -11 -2 0 -8 -13 -5 -40 10 -22 13
-40 27 -40 33 0 5 -3 6 -7 3 -3 -4 -12 -2 -20 4 -7 6 -13 8 -13 4 0 -4 -6 -2
-13 4 -8 6 -24 13 -38 15 -13 3 -24 5 -24 6 0 4 -112 7 -127 3z"/>
</g>
</svg>
